<svg width="45" height="50" fill="none" xmlns="http://www.w3.org/2000/svg"><g clip-path="url(#clip0_406_589)"><path d="M9.432 0v7.571L34.272 25 9.432 42.429V50L45 25 9.432 0z" fill="#E0BEA2"/><path d="M0 7.357v35.215L25.056 25 0 7.357z" fill="#E0BEA2"/><path d="M6.492 29c-.559-.007-1.055-.132-1.487-.374a3.374 3.374 0 01-1.084-.957 4.532 4.532 0 01-.66-1.277 4.607 4.607 0 01-.213-1.354c0-.469.079-.939.235-1.408.157-.47.384-.895.682-1.276.306-.39.671-.697 1.096-.925a2.909 2.909 0 011.431-.352c.574 0 1.074.125 1.499.374.432.25.794.572 1.084.968.291.397.507.826.649 1.288.149.462.223.906.223 1.331 0 .477-.078.95-.234 1.42a4.126 4.126 0 01-.694 1.266 3.53 3.53 0 01-1.084.924A3.1 3.1 0 016.492 29zm-1.89-3.962c.008.309.049.617.124.925.082.3.197.58.346.836a2 2 0 00.593.627c.238.155.514.232.827.232.336 0 .623-.085.861-.254.239-.168.433-.385.582-.649a3.12 3.12 0 00.346-.847 3.458 3.458 0 00-.011-1.783 2.772 2.772 0 00-.358-.847 1.894 1.894 0 00-.592-.616 1.408 1.408 0 00-.828-.242c-.328 0-.611.084-.85.253a2.087 2.087 0 00-.592.649 3.611 3.611 0 00-.447 1.717zm11.05 2.52v1.332h-4.495v-1.332H12.7v-5.083c-.06.088-.16.187-.302.297a4.31 4.31 0 01-.47.308c-.171.095-.35.176-.536.242a1.433 1.433 0 01-.492.099v-1.365c.201 0 .406-.051.615-.154A3.798 3.798 0 0012.7 21h1.532v6.558h1.42z" fill="#fff"/></g><defs><clipPath id="clip0_406_589"><path fill="#fff" d="M0 0h45v50H0z"/></clipPath></defs></svg>