<svg width="45" height="50" fill="none" xmlns="http://www.w3.org/2000/svg"><g clip-path="url(#clip0_406_602)"><path d="M9.432 0v7.571L34.272 25 9.432 42.429V50L45 25 9.432 0z" fill="#E0BEA2"/><path d="M0 7.357v35.215L25.056 25 0 7.357z" fill="#E0BEA2"/><path d="M5.467 29c-.558-.007-1.052-.132-1.483-.373a3.365 3.365 0 01-1.082-.955c-.29-.395-.51-.82-.658-1.273a4.594 4.594 0 01-.212-1.35c0-.468.078-.936.234-1.404a4.24 4.24 0 01.68-1.273 3.45 3.45 0 011.093-.922c.424-.234.9-.351 1.428-.351.572 0 1.07.124 1.494.373.431.249.792.57 1.082.966.29.395.505.823.646 1.284.149.46.223.903.223 1.327 0 .476-.078.948-.234 1.416-.156.46-.386.882-.691 1.262a3.53 3.53 0 01-1.082.922A3.092 3.092 0 015.467 29zm-1.885-3.95c.008.307.049.614.123.921.082.3.197.578.346.834a2 2 0 00.59.626c.238.153.513.23.826.23.334 0 .62-.084.858-.252.238-.168.432-.384.58-.648a3.12 3.12 0 00.346-.845 3.448 3.448 0 00-.011-1.778 2.765 2.765 0 00-.357-.844 1.888 1.888 0 00-.591-.615 1.405 1.405 0 00-.825-.241c-.327 0-.61.084-.848.252a2.081 2.081 0 00-.59.647 3.602 3.602 0 00-.446 1.712zm6.258 3.84c0-.446.03-.837.089-1.174.06-.344.152-.647.279-.91.134-.271.305-.51.513-.714a4.1 4.1 0 01.77-.582c.26-.146.527-.289.802-.428.283-.139.543-.285.78-.439.246-.153.443-.329.592-.526.156-.198.234-.44.234-.725 0-.22-.049-.406-.145-.56a.897.897 0 00-.402-.373 1.354 1.354 0 00-.624-.131c-.283 0-.546.051-.792.154a2.768 2.768 0 00-.647.362 3.943 3.943 0 00-.48.417l-.936-.966a3.8 3.8 0 01.424-.395 4.145 4.145 0 012.62-.9c.58 0 1.067.102 1.461.307.394.198.692.472.892.823.209.344.313.743.313 1.197 0 .329-.056.621-.168.877-.104.25-.249.469-.435.659-.186.19-.394.362-.624.516-.23.146-.468.289-.714.428a12.98 12.98 0 00-.936.537 4.124 4.124 0 00-.57.428 1.814 1.814 0 00-.311.395 3.208 3.208 0 00-.179.395h3.948v1.328H9.84z" fill="#fff"/></g><defs><clipPath id="clip0_406_602"><path fill="#fff" d="M0 0h45v50H0z"/></clipPath></defs></svg>