<svg width="45" height="51" fill="none" xmlns="http://www.w3.org/2000/svg"><g clip-path="url(#clip0_406_606)"><path d="M9.432 0v7.694l24.84 17.71-24.84 17.709v7.694L45 25.402 9.432 0z" fill="#E0BEA2"/><path d="M0 7.476v35.782l25.056-17.855L0 7.476z" fill="#E0BEA2"/><path d="M5.467 29.468c-.558-.008-1.052-.134-1.483-.38a3.382 3.382 0 01-1.082-.97 4.62 4.62 0 01-.658-1.293 4.737 4.737 0 01-.212-1.372 4.56 4.56 0 01.914-2.72 3.47 3.47 0 011.093-.937c.424-.238.9-.357 1.428-.357.572 0 1.07.127 1.494.38.431.252.792.58 1.082.98.29.402.505.837.646 1.305.149.469.223.918.223 1.35 0 .483-.078.962-.234 1.438a4.201 4.201 0 01-.691 1.282 3.534 3.534 0 01-1.082.937c-.424.23-.903.35-1.438.357zm-1.885-4.015c.008.313.049.625.123.937.082.305.197.587.346.848.156.26.353.472.59.635.238.156.513.234.826.234.334 0 .62-.085.858-.256.238-.171.432-.39.58-.658.156-.268.272-.554.346-.859a3.557 3.557 0 00-.011-1.806 2.835 2.835 0 00-.357-.859 1.907 1.907 0 00-.591-.624 1.389 1.389 0 00-.825-.246c-.327 0-.61.086-.848.257s-.435.39-.59.658a3.715 3.715 0 00-.446 1.74zm8.834 3.981c-.424 0-.81-.052-1.16-.156a2.974 2.974 0 01-.903-.468 2.387 2.387 0 01-.602-.736l.803-1.015c.074.164.193.324.356.48.164.156.368.282.614.379.245.096.524.145.836.145.305 0 .569-.045.792-.134.223-.09.394-.212.513-.368a.938.938 0 00.19-.591.893.893 0 00-.235-.624c-.149-.172-.372-.302-.67-.39-.296-.09-.66-.135-1.092-.135h-.368v-1.115h.39c.536 0 .963-.093 1.283-.278.327-.186.49-.45.49-.792a.867.867 0 00-.167-.535.985.985 0 00-.446-.346 1.506 1.506 0 00-.613-.123c-.372 0-.703.09-.993.268a1.744 1.744 0 00-.646.669l-.97-1.082a2.02 2.02 0 01.669-.602 3.75 3.75 0 01.947-.401 4.206 4.206 0 011.104-.145c.528 0 .996.093 1.405.279.41.178.729.423.96.736.23.312.345.669.345 1.07 0 .297-.063.569-.19.814-.118.245-.29.45-.512.613a2.206 2.206 0 01-.792.357c.327.052.613.175.858.368.253.186.446.424.58.714.142.282.212.59.212.925 0 .469-.134.866-.401 1.193-.26.327-.617.58-1.07.759a4.056 4.056 0 01-1.517.267z" fill="#fff"/></g><defs><clipPath id="clip0_406_606"><path fill="#fff" d="M0 0h45v50.806H0z"/></clipPath></defs></svg>