<svg width="19" height="19" viewBox="0 0 19 19" fill="none" xmlns="http://www.w3.org/2000/svg">
<path d="M9.5 2C13.7363 2 17.2607 5.04834 18 9.07089C17.2615 13.0934 13.7363 16.1418 9.5 16.1418C5.26375 16.1418 1.7393 13.0934 1 9.07089C1.73852 5.04834 5.26375 2 9.5 2ZM9.5 14.5705C11.1023 14.5701 12.6571 14.0259 13.9098 13.0268C15.1625 12.0277 16.0389 10.633 16.3957 9.07089C16.0376 7.51004 15.1606 6.11683 13.908 5.11907C12.6554 4.12131 11.1014 3.57801 9.5 3.57801C7.8986 3.57801 6.34457 4.12131 5.09199 5.11907C3.83941 6.11683 2.96238 7.51004 2.60431 9.07089C2.96107 10.633 3.83753 12.0277 5.09023 13.0268C6.34294 14.0259 7.89768 14.5701 9.5 14.5705ZM9.5 12.6063C8.56234 12.6063 7.66309 12.2339 7.00006 11.5708C6.33704 10.9078 5.96455 10.0086 5.96455 9.07089C5.96455 8.13323 6.33704 7.23398 7.00006 6.57096C7.66309 5.90793 8.56234 5.53545 9.5 5.53545C10.4377 5.53545 11.3369 5.90793 11.9999 6.57096C12.663 7.23398 13.0354 8.13323 13.0354 9.07089C13.0354 10.0086 12.663 10.9078 11.9999 11.5708C11.3369 12.2339 10.4377 12.6063 9.5 12.6063ZM9.5 11.035C10.0209 11.035 10.5205 10.8281 10.8889 10.4597C11.2572 10.0914 11.4641 9.59181 11.4641 9.07089C11.4641 8.54997 11.2572 8.05039 10.8889 7.68204C10.5205 7.31369 10.0209 7.10676 9.5 7.10676C8.97908 7.10676 8.47949 7.31369 8.11115 7.68204C7.7428 8.05039 7.53586 8.54997 7.53586 9.07089C7.53586 9.59181 7.7428 10.0914 8.11115 10.4597C8.47949 10.8281 8.97908 11.035 9.5 11.035Z" fill="#E0BEA2"/>
</svg>
