<svg width="15" height="15" fill="none" xmlns="http://www.w3.org/2000/svg"><g clip-path="url(#clip0_429_104)"><rect width="15" height="15" rx="7.5" fill="#fff"/><path d="M11.837 10.793L15 13.955 13.955 15l-3.162-3.163a6.616 6.616 0 01-4.147 1.454A6.648 6.648 0 010 6.646 6.648 6.648 0 016.646 0a6.648 6.648 0 016.645 6.646 6.616 6.616 0 01-1.454 4.147zm-1.48-.548a5.152 5.152 0 001.458-3.6 5.167 5.167 0 00-5.17-5.168 5.167 5.167 0 00-5.168 5.169 5.167 5.167 0 005.169 5.169 5.152 5.152 0 003.6-1.459l.11-.11z" fill="#252525"/></g><defs><clipPath id="clip0_429_104"><rect width="15" height="15" rx="7.5" fill="#fff"/></clipPath></defs></svg>