<svg width="19" height="19" fill="none" xmlns="http://www.w3.org/2000/svg"><path d="M9.5 7.125a2.375 2.375 0 100 4.75 2.375 2.375 0 000-4.75zm0-1.583a3.958 3.958 0 110 7.916 3.958 3.958 0 010-7.916zm5.146-.198a.99.99 0 11-1.98 0 .99.99 0 011.98 0zM9.5 3.167c-1.958 0-2.278.005-3.19.046-.62.029-1.037.112-1.423.262a2.285 2.285 0 00-.855.557c-.248.24-.438.532-.557.855-.15.388-.234.804-.262 1.423-.041.874-.046 1.18-.046 3.19 0 1.959.005 2.278.046 3.19.029.62.112 1.037.262 1.422.134.345.293.592.556.855.266.266.514.425.855.557.39.151.807.235 1.425.264.874.04 1.18.045 3.19.045 1.958 0 2.278-.005 3.189-.046.619-.029 1.036-.112 1.422-.262.343-.133.593-.293.855-.555a2.3 2.3 0 00.558-.855c.15-.39.234-.808.263-1.425.04-.874.046-1.18.046-3.19 0-1.959-.006-2.278-.046-3.19-.03-.619-.113-1.037-.263-1.423a2.304 2.304 0 00-.557-.855 2.283 2.283 0 00-.855-.557c-.388-.15-.804-.234-1.423-.262-.874-.042-1.18-.046-3.19-.046zm0-1.584c2.151 0 2.42.008 3.263.048.844.04 1.418.172 1.923.368a3.86 3.86 0 011.402.913c.403.396.714.874.913 1.403.196.504.329 1.079.368 1.922.038.844.048 1.112.048 3.263s-.008 2.42-.048 3.263-.172 1.417-.368 1.922a3.866 3.866 0 01-.913 1.403 3.89 3.89 0 01-1.402.913c-.505.196-1.08.329-1.923.368-.844.037-1.112.048-3.263.048-2.15 0-2.42-.008-3.263-.048s-1.417-.172-1.922-.368a3.871 3.871 0 01-1.403-.913 3.883 3.883 0 01-.913-1.403c-.196-.504-.328-1.079-.368-1.922-.037-.844-.048-1.112-.048-3.263 0-2.15.008-2.42.048-3.263.04-.844.172-1.417.368-1.922.198-.53.51-1.008.913-1.403a3.877 3.877 0 011.403-.913c.505-.196 1.078-.329 1.922-.368.844-.037 1.112-.048 3.263-.048z" fill="#E0BEA2"/></svg>